<svg version="1.0" xmlns="http://www.w3.org/2000/svg" width="92.000000pt" height="397.000000pt" viewBox="0 0 92.000000 397.000000" preserveAspectRatio="xMidYMid meet" style="width: 340px; height: auto;"> <g transform="translate(0.000000,397.000000) scale(0.100000,-0.100000)" fill="#000000" stroke="none"> <path d="M265 3870 c-22 -24 -9 -27 17 -3 15 13 23 15 36 6 18 -11 20 -35 7 -68 -8 -20 -8 -20 13 -1 41 36 20 86 -36 86 -10 0 -27 -9 -37 -20z"></path> <path d="M687 3883 c-11 -10 -8 -61 4 -68 7 -5 2 -16 -13 -33 -18 -20 -19 -24 -5 -19 26 10 22 -20 -8 -55 -29 -34 -29 -61 -2 -66 27 -5 47 17 47 50 0 26 2 29 15 18 8 -7 15 -22 15 -34 0 -21 -24 -64 -44 -78 -7 -5 -7 -8 -1 -8 11 0 35 25 58 62 19 29 6 67 -24 75 -14 4 -19 12 -16 24 3 10 0 20 -6 22 -7 2 0 17 16 36 15 18 27 38 27 45 0 27 -45 48 -63 29z m35 -33 c-3 -31 -11 -38 -22 -20 -16 25 -12 52 8 48 11 -3 16 -12 14 -28z m-36 -186 c-3 -8 -10 -14 -16 -14 -14 0 -13 27 2 53 l13 22 3 -23 c2 -13 1 -30 -2 -38z" stroke-width="1"></path>  <path d="M250 3820 c-16 -16 -18 -24 -10 -40 6 -11 20 -20 30 -20 28 0 25 -9 -17 -52 -20 -21 -34 -41 -30 -45 4 -4 21 9 37 28 l29 34 1 -29 c0 -16 -8 -38 -17 -49 -17 -19 -17 -20 0 -14 11 4 17 1 17 -8 0 -7 -9 -17 -20 -20 -11 -3 -23 -17 -26 -31 -7 -28 12 -58 33 -50 19 8 16 -7 -8 -38 -11 -14 -16 -26 -10 -26 5 0 13 5 17 11 4 7 9 8 17 0 7 -7 5 -17 -6 -34 -28 -43 -128 -157 -138 -157 -5 0 -9 15 -10 33 -1 32 -1 32 -10 -7 -18 -75 6 -69 91 24 97 105 111 127 88 144 -11 8 -14 17 -7 27 5 8 9 40 9 71 l0 57 47 3 c45 3 48 5 54 38 8 38 3 54 -7 24 -12 -33 -36 -54 -64 -54 -36 0 -39 5 -30 46 4 19 4 36 0 39 -5 3 -5 18 0 34 8 30 -5 71 -27 78 -6 2 -21 -5 -33 -17z m38 -26 c-5 -28 -28 -29 -28 -1 0 13 3 27 7 31 10 10 25 -10 21 -30z m2 -218 c0 -13 -7 -29 -15 -36 -13 -11 -15 -8 -15 17 0 16 3 33 7 36 13 14 23 6 23 -17z" class="" stroke-width="1"></path>   <path d="M687 3473 c-11 -10 -8 -61 4 -68 7 -5 2 -16 -13 -33 -18 -20 -19 -24 -5 -19 22 8 24 -25 2 -43 -8 -7 -15 -17 -15 -22 0 -6 7 -5 15 2 13 10 15 9 15 -10 0 -13 -8 -32 -17 -43 -17 -19 -17 -20 0 -14 22 8 24 -25 2 -43 -8 -7 -15 -17 -15 -22 0 -6 7 -5 15 2 13 10 15 9 15 -9 0 -12 -7 -24 -15 -27 -8 -4 -15 -11 -15 -16 0 -6 11 -3 25 6 29 19 55 21 55 4 0 -7 -21 -34 -47 -61 -28 -29 -39 -45 -25 -38 20 11 22 9 22 -14 0 -14 -9 -33 -20 -42 -11 -10 -20 -22 -20 -27 0 -5 13 2 28 17 47 45 60 1 16 -52 -14 -17 -22 -31 -17 -31 15 0 51 42 62 73 10 26 9 29 -10 34 -16 5 -20 12 -17 34 3 16 0 30 -6 32 -5 2 5 13 22 26 39 27 42 58 6 71 -14 6 -23 14 -19 19 3 5 1 12 -4 15 -5 3 -7 15 -4 26 4 15 15 20 51 22 45 3 47 4 53 40 3 20 2 35 -3 32 -4 -3 -8 -11 -8 -18 0 -20 -34 -46 -62 -46 -33 0 -38 6 -28 41 5 17 5 31 -1 34 -5 4 -5 15 2 27 8 16 8 22 -2 28 -9 6 -6 16 14 40 15 17 27 37 27 44 0 27 -45 48 -63 29z m35 -33 c-5 -33 -11 -38 -22 -20 -16 25 -12 52 8 48 12 -2 16 -11 14 -28z" class=""></path> <path d="M313 3233 c17 -20 17 -21 -18 -51 -37 -33 -45 -48 -20 -38 28 10 16 -29 -20 -69 -42 -45 -38 -61 5 -20 l30 29 0 -26 c0 -14 -7 -31 -15 -38 -8 -7 -15 -17 -15 -22 0 -6 7 -5 15 2 13 11 15 7 15 -24 0 -24 -7 -42 -20 -53 -11 -10 -20 -22 -20 -27 0 -5 14 3 30 19 17 16 30 27 31 24 7 -35 2 -56 -18 -80 -14 -16 -20 -29 -15 -29 6 0 22 14 36 31 29 34 35 79 10 79 -12 0 -15 8 -13 34 2 19 1 38 -3 41 -3 4 -2 20 2 36 7 23 5 31 -6 36 -9 3 -11 10 -6 17 18 23 21 56 5 56 -11 0 -8 6 10 20 14 11 35 20 46 20 19 0 21 -6 22 -52 l1 -53 13 49 c16 57 13 66 -20 66 -13 0 -27 4 -30 10 -3 5 -16 15 -28 21 -21 12 -22 11 -4 -8z" class="" stroke-width="1"></path>  <path d="M180 3011 c0 -5 7 -12 16 -15 27 -10 36 -7 20 9 -16 17 -36 20 -36 6z"></path>   <path d="M657 2708 c-43 -48 -41 -65 3 -23 l30 29 0 -25 c0 -15 -15 -41 -35 -64 -41 -44 -38 -61 4 -21 l28 27 5 -56 c6 -74 37 -108 97 -108 52 0 81 25 80 67 l-1 31 -7 -31 c-12 -47 -19 -54 -61 -54 -55 0 -92 45 -89 108 2 30 -1 47 -9 50 -8 2 -9 8 -4 15 18 23 21 58 6 64 -11 4 -12 9 -3 19 6 8 7 14 2 14 -5 0 -25 -19 -46 -42z" class=""></path> <path d="M268 2703 c6 -2 12 -11 12 -19 0 -8 9 -14 20 -14 18 0 16 -4 -12 -30 -25 -22 -29 -29 -15 -30 26 0 20 -22 -18 -65 -42 -45 -38 -61 5 -20 l30 29 0 -24 c0 -13 -8 -32 -17 -43 -17 -19 -17 -20 0 -14 11 4 17 1 17 -8 0 -7 -9 -17 -20 -20 -11 -3 -23 -17 -26 -31 -7 -28 12 -58 33 -50 19 8 16 -7 -8 -38 -20 -25 -14 -37 8 -15 19 19 26 -9 9 -35 -27 -43 -127 -156 -137 -156 -5 0 -9 15 -10 33 -1 32 -1 32 -10 -7 -18 -75 6 -69 91 24 97 105 111 127 88 144 -11 8 -14 17 -7 27 5 8 9 40 9 72 l0 57 45 0 c28 0 47 5 50 13 10 29 13 67 4 62 -5 -4 -9 -12 -9 -19 0 -20 -34 -46 -62 -46 -33 0 -38 6 -28 41 7 23 5 31 -5 35 -12 5 -12 9 1 29 14 21 14 24 -1 32 -14 8 -10 15 24 46 22 20 36 39 32 42 -5 2 -14 -2 -21 -10 -16 -19 -36 -19 -44 0 -3 8 -13 15 -23 14 -11 0 -13 -3 -5 -6z m22 -287 c0 -13 -7 -29 -15 -36 -13 -11 -15 -8 -15 17 0 16 3 33 7 36 13 14 23 6 23 -17z" stroke-width="1"></path>      <path d="M687 2373 c-11 -10 -8 -61 4 -68 7 -5 2 -16 -13 -33 -18 -20 -19 -24 -5 -19 12 4 17 1 17 -10 0 -9 -8 -25 -17 -36 -17 -19 -17 -20 0 -14 12 5 17 1 17 -14 0 -11 -7 -22 -15 -25 -37 -14 -41 -74 -6 -74 24 0 41 20 41 47 0 29 16 30 25 3 7 -22 -18 -70 -35 -70 -6 0 -10 -13 -10 -30 0 -31 -16 -41 -26 -15 -9 22 -23 18 -17 -5 3 -11 14 -20 24 -20 30 0 23 -32 -16 -75 -42 -45 -38 -61 5 -20 l30 29 0 -42 c0 -30 -6 -47 -20 -59 -11 -10 -20 -22 -20 -27 0 -5 14 3 30 19 17 16 30 27 31 24 7 -35 2 -56 -18 -80 -14 -16 -21 -29 -16 -29 15 0 51 42 62 73 10 25 9 29 -10 34 -17 5 -20 12 -18 45 2 24 -2 42 -10 47 -9 6 -10 11 -2 15 6 4 11 28 11 54 0 38 5 52 31 78 26 27 29 35 20 52 -6 11 -20 24 -32 27 -14 5 -19 13 -16 26 3 10 1 21 -4 24 -4 3 -4 16 1 30 6 16 5 25 -3 28 -7 2 -2 16 16 36 15 18 27 38 27 45 0 27 -45 48 -63 29z m35 -33 c-3 -31 -11 -38 -22 -20 -16 25 -12 52 8 48 11 -3 16 -12 14 -28z m-36 -236 c-3 -8 -10 -14 -16 -14 -14 0 -13 33 3 49 10 10 13 9 15 -4 2 -9 1 -23 -2 -31z" class=""></path>   <path d="M313 2073 c17 -20 17 -21 -18 -51 -38 -34 -44 -45 -20 -36 28 11 16 -31 -20 -71 -42 -45 -38 -61 5 -20 l30 29 0 -26 c0 -14 -7 -31 -15 -38 -8 -7 -15 -17 -15 -22 0 -6 7 -5 15 2 13 11 15 7 15 -24 0 -24 -7 -42 -20 -53 -11 -10 -20 -22 -20 -27 0 -5 13 2 28 17 47 45 60 1 16 -52 -14 -17 -22 -31 -17 -31 15 0 51 42 62 73 10 25 9 29 -10 34 -16 5 -20 12 -17 39 1 18 0 36 -4 39 -3 4 -2 20 2 36 7 23 5 31 -6 36 -9 3 -11 10 -6 17 18 23 21 56 5 56 -11 0 -8 6 10 20 14 11 35 20 46 20 19 0 21 -6 22 -52 l1 -53 13 49 c16 57 13 66 -20 66 -13 0 -27 4 -30 10 -3 5 -16 15 -28 21 -21 12 -22 11 -4 -8z" stroke-width="1"></path> <path d="M180 1851 c0 -5 7 -12 16 -15 27 -10 36 -7 20 9 -16 17 -36 20 -36 6z"></path>  <path d="M679 1692 c12 -8 8 -18 -19 -54 -44 -56 -102 -118 -112 -118 -4 0 -8 15 -9 33 l-1 32 -8 -30 c-4 -16 -9 -36 -11 -44 -2 -8 3 -16 12 -18 10 -3 47 32 103 97 47 55 82 100 77 100 -5 0 -18 3 -28 6 -14 5 -15 4 -4 -4z"></path>  <path d="M272 1539 c27 -15 25 -174 -3 -197 -10 -9 -19 -21 -19 -26 0 -5 13 3 29 18 16 15 31 23 35 18 10 -16 -3 -54 -25 -79 -13 -12 -18 -23 -12 -23 15 0 50 42 62 73 10 26 9 29 -10 34 -18 5 -20 11 -16 39 3 19 3 34 -1 34 -4 0 -5 22 -4 50 2 27 8 50 14 50 5 0 6 5 3 10 -3 6 -21 10 -38 10 -26 -1 -29 -2 -15 -11z"></path> <path d="M681 1499 c-13 -11 -21 -22 -17 -26 3 -3 14 1 24 10 22 20 52 22 52 5 0 -7 -21 -34 -47 -61 -27 -27 -38 -44 -26 -38 16 8 23 8 26 -2 4 -9 8 -8 16 3 7 10 7 17 0 21 -6 4 2 16 20 28 38 27 40 58 5 71 -31 12 -24 13 -53 -11z"></path> <path d="M214 1458 c-5 -8 -2 -9 10 -5 25 10 32 -20 11 -43 -23 -25 -11 -26 20 -1 22 17 23 20 9 40 -17 23 -39 27 -50 9z"></path> <path d="M687 1350 c-4 -17 -11 -20 -34 -15 -24 5 -25 5 -10 -5 18 -11 18 -13 -4 -36 -12 -13 -17 -24 -10 -24 6 0 23 12 36 28 l24 27 1 -31 c0 -17 -7 -37 -15 -44 -8 -7 -15 -17 -15 -22 0 -6 7 -5 15 2 13 10 15 9 15 -10 0 -13 -7 -32 -17 -42 -20 -22 -11 -35 10 -13 17 17 37 20 37 6 0 -5 -36 -47 -80 -93 -79 -83 -79 -83 -50 -86 41 -4 70 14 70 43 0 14 -5 25 -12 25 -12 0 21 29 35 30 13 0 7 -67 -8 -80 -8 -7 -15 -17 -15 -22 0 -6 7 -5 15 2 25 21 20 -52 -5 -75 -11 -10 -20 -23 -20 -28 0 -6 13 2 29 17 16 15 31 23 35 18 10 -16 -3 -54 -25 -79 -13 -12 -18 -23 -12 -23 6 0 23 14 37 31 29 34 35 79 10 79 -11 0 -15 9 -14 33 1 17 1 37 0 42 -1 6 -1 29 0 53 1 33 -2 42 -15 42 -10 0 -4 10 20 31 40 36 44 49 14 56 -16 4 -20 12 -16 30 2 13 1 26 -3 28 -4 3 -4 21 0 40 4 19 4 37 0 40 -5 3 -6 14 -3 25 3 11 1 20 -5 20 -5 0 -12 -9 -15 -20z m-37 -318 c0 -15 -24 -32 -44 -32 -18 0 -19 1 -1 20 18 20 45 27 45 12z"></path>    <path d="M272 1123 c-34 -13 -37 -73 -3 -73 24 0 41 20 41 48 0 30 24 24 28 -7 2 -15 -6 -34 -24 -52 -15 -16 -23 -29 -18 -29 14 0 74 63 74 77 0 28 -61 51 -98 36z m14 -49 c-3 -8 -10 -14 -16 -14 -14 0 -13 33 3 49 10 10 13 9 15 -4 2 -9 1 -23 -2 -31z"></path> <path d="M245 980 c-16 -16 -25 -33 -21 -37 4 -5 18 4 31 20 28 31 35 34 35 10 0 -9 -12 -29 -27 -45 -25 -26 -26 -55 -1 -30 21 21 25 13 30 -48 6 -78 35 -113 97 -113 68 0 107 59 64 94 -15 13 -15 12 -3 -8 11 -17 11 -27 2 -47 -10 -22 -18 -26 -51 -26 -58 0 -91 42 -91 116 0 45 -3 54 -17 54 -16 1 -16 2 -2 13 25 20 30 56 9 67 -25 13 -22 14 -55 -20z"></path> <path d="M194 849 l-38 -39 33 0 c45 0 71 16 71 44 0 39 -25 37 -66 -5z m56 3 c0 -15 -24 -32 -44 -32 -18 0 -19 1 -1 20 18 20 45 27 45 12z"></path> <path d="M304 628 c1 -18 -4 -22 -22 -21 -15 2 -21 -1 -16 -8 3 -6 19 -9 35 -5 16 3 29 2 29 -3 0 -10 -41 -47 -60 -54 -12 -4 -11 -6 3 -6 23 -1 22 -28 -3 -36 -11 -3 -23 -17 -26 -31 -7 -28 12 -58 33 -50 25 10 13 -20 -22 -54 -35 -34 -35 -34 -36 -9 l-1 24 -7 -25 c-14 -46 7 -46 53 -1 43 42 45 46 48 112 2 56 0 69 -12 69 -8 0 0 10 18 21 31 20 32 23 17 45 -9 14 -11 25 -5 29 13 8 3 25 -14 25 -7 0 -12 -10 -12 -22z m-14 -162 c0 -13 -7 -29 -15 -36 -13 -11 -15 -8 -15 17 0 16 3 33 7 36 13 14 23 6 23 -17z"></path> <path d="M290 341 c0 -16 -7 -34 -15 -41 -8 -7 -15 -17 -15 -22 0 -6 7 -5 16 3 14 11 15 9 12 -22 -3 -34 -7 -36 -43 -23 l-20 7 20 -16 c20 -15 20 -16 -4 -41 -14 -14 -20 -26 -14 -26 5 0 20 11 33 25 26 28 52 32 69 11 15 -18 2 -47 -31 -70 -12 -9 -17 -16 -11 -16 21 0 73 51 73 72 0 13 -10 24 -29 31 -26 9 -27 13 -21 44 5 18 4 35 0 38 -5 3 -5 18 0 34 4 16 6 32 2 35 -13 14 -22 4 -22 -23z"></path> </g> </svg>