<?xml version="1.0" standalone="no"?>
<!DOCTYPE svg PUBLIC "-//W3C//DTD SVG 20010904//EN"
 "http://www.w3.org/TR/2001/REC-SVG-20010904/DTD/svg10.dtd">
<svg version="1.0" xmlns="http://www.w3.org/2000/svg"
 width="92.000000pt" height="397.000000pt" viewBox="0 0 92.000000 397.000000"
 preserveAspectRatio="xMidYMid meet">
<g transform="translate(0.000000,397.000000) scale(0.100000,-0.100000)"
fill="#ffffff" stroke="none">
<path d="M265 3870 c-10 -11 -13 -20 -8 -20 6 0 16 7 23 15 29 35 71 1 51 -42
l-12 -26 -15 21 c-20 29 -40 28 -60 -3 -13 -20 -14 -28 -4 -40 7 -8 21 -15 31
-15 27 0 24 -9 -18 -52 -20 -21 -34 -41 -30 -45 4 -4 21 9 37 28 l29 34 1 -29
c0 -16 -8 -38 -17 -49 -17 -19 -17 -20 0 -14 26 10 21 -16 -5 -28 -13 -6 -24
-20 -26 -33 -4 -28 16 -55 35 -48 19 8 16 -7 -8 -38 -20 -25 -14 -37 8 -15 18
18 26 -9 10 -34 -39 -58 -129 -157 -137 -152 -6 4 -10 18 -11 33 -1 23 -3 21
-11 -11 -8 -29 -7 -42 2 -50 9 -9 27 4 77 58 102 111 118 134 107 153 -6 10
-8 49 -6 89 l4 72 46 3 c44 3 47 5 53 38 9 44 5 49 -13 13 -14 -29 -55 -50
-81 -40 -12 4 -13 13 -7 41 4 20 4 38 0 41 -14 8 2 48 32 83 22 26 26 37 18
51 -19 36 -68 41 -95 11z m23 -76 c-5 -28 -28 -29 -28 -1 0 13 3 27 7 31 10
10 25 -10 21 -30z m2 -218 c0 -13 -7 -29 -15 -36 -13 -11 -15 -8 -15 17 0 16
3 33 7 36 13 14 23 6 23 -17z"/>
<path d="M687 3883 c-11 -10 -8 -61 4 -68 7 -5 2 -16 -13 -33 -18 -20 -19 -24
-5 -19 26 10 21 -24 -9 -52 -28 -27 -29 -64 -1 -69 27 -5 47 17 47 50 0 26 2
29 15 18 23 -19 18 -55 -11 -89 -14 -17 -22 -31 -18 -31 12 0 74 71 74 85 0
19 -31 55 -47 55 -10 0 -14 6 -10 20 3 10 0 21 -6 23 -7 2 0 17 16 36 15 18
27 38 27 45 0 27 -45 48 -63 29z m33 -33 c0 -32 -14 -40 -24 -14 -10 27 -7 44
9 44 10 0 15 -10 15 -30z m-34 -186 c-3 -8 -10 -14 -16 -14 -14 0 -13 27 2 53
l13 22 3 -23 c2 -13 1 -30 -2 -38z"/>
<path d="M687 3473 c-11 -10 -8 -61 4 -68 7 -5 2 -16 -13 -33 -18 -20 -19 -24
-5 -19 12 4 17 1 17 -10 0 -9 -8 -25 -17 -36 -17 -19 -17 -20 0 -14 13 5 17 1
17 -15 0 -12 -8 -30 -17 -41 -17 -19 -17 -20 0 -14 12 4 17 1 17 -10 0 -9 -8
-25 -17 -36 -17 -19 -17 -20 0 -14 23 9 23 -21 0 -39 -10 -7 -15 -16 -11 -20
5 -4 16 0 26 9 22 20 52 22 52 5 0 -7 -21 -34 -47 -61 -28 -29 -39 -45 -25
-38 20 11 22 9 22 -12 0 -13 -9 -32 -20 -42 -11 -10 -20 -23 -20 -28 0 -6 10
-1 23 11 13 12 26 22 30 22 15 0 6 -49 -14 -74 -25 -32 -11 -35 18 -3 44 48
51 87 16 87 -11 0 -14 8 -11 30 3 17 0 30 -6 30 -6 0 4 12 22 26 39 31 42 61
6 74 -14 6 -23 14 -19 19 3 5 1 12 -4 15 -5 3 -7 15 -4 26 4 15 15 20 51 22
46 3 47 4 53 41 6 40 3 41 -15 5 -13 -25 -55 -44 -79 -35 -13 5 -14 12 -7 36
5 18 5 33 -1 36 -5 4 -5 15 2 27 8 16 8 22 -2 29 -11 6 -8 14 14 37 29 30 34
51 15 70 -13 13 -41 16 -51 5z m33 -33 c0 -32 -14 -40 -24 -14 -10 27 -7 44 9
44 10 0 15 -10 15 -30z"/>
<path d="M313 3233 c17 -20 17 -21 -18 -51 -37 -33 -45 -48 -20 -38 28 10 16
-27 -22 -66 -43 -44 -37 -65 7 -23 l30 29 0 -24 c0 -13 -8 -32 -17 -43 -17
-19 -17 -20 0 -14 26 10 24 -54 -3 -78 -11 -10 -20 -23 -20 -28 0 -6 10 -1 23
11 13 12 26 22 30 22 15 0 6 -49 -14 -74 -11 -14 -16 -26 -11 -26 14 0 50 42
61 73 10 25 9 29 -10 34 -16 5 -20 12 -17 39 1 18 0 36 -4 39 -3 4 -3 19 2 35
4 15 4 32 -1 37 -5 5 -5 22 0 41 8 26 7 32 -6 32 -11 0 -8 6 10 20 14 11 35
20 46 20 19 0 21 -6 22 -52 l0 -53 15 45 c17 54 12 70 -20 70 -14 0 -28 4 -31
10 -3 5 -16 15 -28 21 -21 12 -22 11 -4 -8z"/>
<path d="M180 3011 c0 -5 7 -12 16 -15 27 -10 36 -7 20 9 -16 17 -36 20 -36 6z"/>
<path d="M656 2710 c-45 -46 -41 -68 4 -25 l30 29 0 -24 c0 -14 -15 -40 -37
-62 -43 -44 -37 -65 7 -23 l30 29 0 -52 c0 -43 5 -57 28 -83 23 -26 36 -32 70
-32 50 0 82 25 81 62 0 23 -1 22 -12 -9 -11 -32 -16 -35 -53 -38 -36 -3 -45 1
-68 29 -22 25 -27 41 -25 73 2 23 0 47 -4 52 -3 6 -2 25 3 42 5 18 5 34 0 37
-5 3 -7 12 -3 20 9 26 -11 16 -51 -25z"/>
<path d="M270 2690 c6 -11 18 -20 27 -20 13 0 10 -7 -12 -30 -22 -23 -25 -30
-12 -30 27 0 20 -21 -20 -62 -43 -44 -37 -65 7 -23 l30 29 0 -24 c0 -13 -8
-32 -17 -43 -17 -19 -17 -20 0 -14 26 10 21 -16 -5 -28 -13 -6 -24 -20 -26
-33 -4 -28 16 -55 35 -48 19 8 16 -7 -8 -38 -20 -25 -14 -37 8 -15 18 18 26
-9 10 -34 -39 -58 -129 -157 -137 -152 -6 4 -10 18 -11 33 -1 22 -3 20 -10
-12 -17 -72 6 -69 78 9 102 111 118 134 107 153 -6 10 -8 49 -6 89 l4 72 46 3
c43 3 46 5 54 37 10 36 3 56 -8 25 -12 -33 -36 -54 -64 -54 -35 0 -40 6 -30
41 7 23 5 31 -5 35 -12 5 -12 9 1 29 14 21 14 24 -1 33 -14 7 -11 14 25 44 23
20 37 39 32 42 -5 3 -15 -1 -22 -9 -16 -19 -36 -19 -44 0 -3 8 -12 15 -21 15
-13 0 -14 -4 -5 -20z m20 -274 c0 -13 -7 -29 -15 -36 -13 -11 -15 -8 -15 17 0
16 3 33 7 36 13 14 23 6 23 -17z"/>
<path d="M687 2373 c-11 -10 -8 -61 4 -68 7 -5 2 -16 -13 -33 -18 -20 -19 -24
-5 -19 12 4 17 1 17 -10 0 -9 -8 -25 -17 -36 -17 -19 -17 -20 0 -14 12 5 17 1
17 -14 0 -11 -7 -22 -15 -25 -37 -14 -41 -74 -6 -74 24 0 41 20 41 47 0 29 16
30 25 3 7 -22 -18 -70 -35 -70 -6 0 -10 -13 -10 -30 0 -31 -16 -41 -26 -15 -9
22 -23 18 -17 -5 3 -11 14 -20 24 -20 30 0 22 -31 -18 -72 -43 -44 -37 -65 7
-23 l30 29 0 -41 c0 -27 -6 -46 -20 -58 -11 -10 -20 -23 -20 -28 0 -6 10 -1
23 11 13 12 26 22 30 22 15 0 6 -49 -14 -74 -25 -32 -11 -35 18 -3 44 48 52
87 17 87 -12 0 -15 10 -13 41 2 25 -2 43 -10 48 -9 6 -10 11 -2 15 6 4 11 29
11 55 0 39 5 52 30 76 38 36 38 52 0 73 -21 11 -29 23 -26 34 2 10 0 21 -5 24
-5 3 -4 14 2 26 8 16 8 22 -2 28 -9 6 -6 16 14 40 15 17 27 37 27 44 0 27 -45
48 -63 29z m33 -33 c0 -32 -14 -40 -24 -14 -10 27 -7 44 9 44 10 0 15 -10 15
-30z m-34 -236 c-3 -8 -10 -14 -16 -14 -14 0 -13 33 3 49 10 10 13 9 15 -4 2
-9 1 -23 -2 -31z"/>
<path d="M313 2073 c17 -20 17 -21 -18 -51 -37 -33 -45 -48 -20 -38 28 10 16
-27 -22 -66 -43 -44 -37 -65 7 -23 l30 29 0 -24 c0 -13 -8 -32 -17 -43 -17
-19 -17 -20 0 -14 26 10 24 -54 -3 -78 -11 -10 -20 -23 -20 -28 0 -6 10 -1 23
11 13 12 26 22 30 22 15 0 6 -49 -14 -74 -25 -32 -11 -35 18 -3 44 48 52 87
17 87 -12 0 -15 9 -13 34 2 19 1 38 -3 41 -3 4 -2 20 2 36 7 23 5 31 -6 36 -9
3 -11 10 -6 17 18 23 21 56 5 56 -11 0 -8 6 10 20 14 11 35 20 46 20 19 0 21
-6 22 -52 l1 -53 13 49 c16 57 13 66 -20 66 -13 0 -27 4 -30 10 -3 5 -16 15
-28 21 -21 12 -22 11 -4 -8z"/>
<path d="M180 1851 c0 -5 7 -12 16 -15 27 -10 36 -7 20 9 -16 17 -36 20 -36 6z"/>
<path d="M679 1692 c12 -9 8 -19 -24 -59 -52 -65 -97 -113 -107 -113 -4 0 -8
15 -9 33 l-1 32 -12 -40 c-28 -88 6 -74 108 45 47 55 82 100 77 100 -5 0 -18
3 -28 6 -14 5 -15 4 -4 -4z"/>
<path d="M273 1539 c12 -7 17 -23 17 -54 0 -47 -9 -56 -30 -30 -15 18 -36 19
-46 3 -5 -8 -2 -9 10 -5 25 10 32 -20 11 -43 -24 -26 -10 -25 23 1 l27 21 3
-32 c2 -23 -3 -39 -19 -56 -12 -13 -20 -26 -17 -29 2 -3 13 4 23 15 10 11 22
20 27 20 16 0 8 -48 -13 -74 -25 -32 -11 -35 18 -3 43 47 52 87 19 87 -10 0
-14 22 -15 85 0 53 3 85 10 85 5 0 7 5 4 10 -3 6 -21 10 -38 10 -27 -1 -29 -2
-14 -11z"/>
<path d="M680 1500 c-14 -10 -21 -22 -17 -26 4 -4 15 0 25 9 22 20 52 22 52 5
0 -7 -21 -34 -47 -61 -27 -27 -38 -44 -26 -38 16 8 23 8 26 -2 4 -9 8 -8 16 3
6 9 6 17 0 20 -5 4 4 16 21 28 37 28 39 59 4 72 -31 12 -24 13 -54 -10z"/>
<path d="M687 1350 c-4 -17 -11 -20 -34 -15 -24 5 -25 5 -10 -5 18 -11 18 -13
-4 -36 -15 -16 -18 -24 -9 -24 8 0 24 12 37 28 l22 27 1 -29 c0 -16 -8 -38
-17 -49 -17 -19 -17 -20 0 -14 23 8 23 -29 0 -55 -20 -22 -11 -35 10 -13 17
17 37 20 37 6 0 -5 -36 -47 -80 -93 -79 -83 -79 -83 -50 -86 41 -4 70 14 70
43 0 14 -5 25 -12 25 -12 0 21 29 35 30 14 0 7 -64 -10 -83 -17 -19 -17 -20 0
-14 26 10 24 -54 -3 -78 -11 -10 -20 -23 -20 -28 0 -6 10 -1 23 11 13 12 26
22 30 22 15 0 6 -49 -14 -74 -25 -32 -11 -35 18 -3 44 48 52 87 17 87 -11 0
-15 9 -14 33 1 17 1 37 0 42 -1 6 -1 29 0 53 1 34 -2 42 -17 42 -12 0 -7 8 20
27 41 29 48 52 16 60 -16 4 -20 12 -16 30 2 13 1 26 -3 28 -4 3 -4 21 0 40 4
19 4 37 0 40 -5 3 -6 14 -3 25 3 11 1 20 -5 20 -5 0 -12 -9 -15 -20z m-37
-318 c0 -15 -24 -32 -44 -32 -18 0 -19 1 -1 20 18 20 45 27 45 12z"/>
<path d="M272 1123 c-34 -13 -37 -73 -3 -73 24 0 41 20 41 47 0 26 15 31 24 7
11 -29 6 -38 -56 -95 -34 -32 -59 -62 -54 -66 4 -4 18 4 31 20 28 31 35 34 35
10 0 -9 -12 -29 -27 -45 -25 -26 -26 -55 -1 -30 21 21 25 13 30 -48 3 -49 10
-66 30 -87 50 -50 149 -26 147 36 0 23 -1 22 -12 -9 -11 -32 -16 -35 -53 -38
-36 -3 -45 1 -68 28 -21 26 -26 42 -26 86 0 45 -3 54 -17 54 -17 1 -17 2 -1
13 18 14 26 46 16 63 -4 6 8 26 27 44 19 19 35 39 35 45 0 32 -58 54 -98 38z
m9 -56 c-18 -18 -25 1 -11 30 l14 28 4 -24 c2 -13 -1 -28 -7 -34z"/>
<path d="M194 849 l-38 -39 33 0 c45 0 71 16 71 44 0 39 -25 37 -66 -5z m56 3
c0 -15 -24 -32 -44 -32 -18 0 -19 1 -1 20 18 20 45 27 45 12z"/>
<path d="M304 628 c1 -18 -4 -22 -22 -21 -15 2 -21 -1 -16 -8 3 -6 17 -9 30
-6 42 8 20 -39 -26 -56 -12 -4 -11 -6 3 -6 24 -1 21 -24 -5 -36 -13 -6 -24
-20 -26 -33 -4 -28 16 -55 35 -48 23 9 14 -19 -15 -47 -33 -32 -42 -33 -43 -9
0 12 -3 11 -10 -6 -9 -25 -5 -42 12 -42 5 0 26 19 47 41 33 38 37 48 42 110 3
43 1 69 -5 69 -5 0 3 11 20 24 29 23 29 25 12 44 -12 13 -15 22 -7 27 13 8 4
25 -14 25 -7 0 -12 -10 -12 -22z m-14 -162 c0 -13 -7 -29 -15 -36 -13 -11 -15
-8 -15 17 0 16 3 33 7 36 13 14 23 6 23 -17z"/>
<path d="M290 343 c0 -14 -8 -35 -17 -46 -17 -19 -17 -20 0 -14 16 6 18 2 15
-26 -3 -32 -6 -34 -43 -22 -20 7 -20 6 -1 -9 19 -16 19 -16 -4 -41 -13 -14
-19 -25 -13 -25 5 0 20 11 33 25 31 33 64 30 68 -6 2 -19 -4 -33 -24 -48 -32
-25 -19 -28 16 -4 50 34 54 69 11 86 -26 9 -27 13 -21 44 5 18 4 35 0 38 -5 3
-5 18 0 34 4 16 6 32 2 35 -13 13 -22 4 -22 -21z"/>
</g>
</svg>
